<?xml version="1.0" standalone="no"?>
<!DOCTYPE svg PUBLIC "-//W3C//DTD SVG 20010904//EN"
 "http://www.w3.org/TR/2001/REC-SVG-20010904/DTD/svg10.dtd">
<svg version="1.0" xmlns="http://www.w3.org/2000/svg"
 width="512.000000pt" height="512.000000pt" viewBox="0 0 512.000000 512.000000"
 preserveAspectRatio="xMidYMid meet">

<g transform="translate(0.000000,512.000000) scale(0.100000,-0.100000)"
fill="#000000" stroke="none">
<path d="M3296 5109 c-659 -69 -1216 -532 -1405 -1166 -49 -165 -65 -279 -65
-468 0 -176 14 -284 55 -434 l20 -75 -935 -935 c-513 -515 -941 -950 -950
-968 -14 -28 -16 -90 -16 -488 0 -437 1 -457 20 -495 13 -26 34 -47 60 -60 38
-19 58 -20 498 -20 l458 0 45 29 c60 38 252 238 269 280 11 28 11 53 -1 163
-10 88 -11 132 -4 134 5 2 80 10 166 18 173 17 193 22 231 62 34 37 44 79 59
252 6 78 15 144 18 146 3 2 63 -3 133 -11 126 -15 129 -14 172 7 73 35 86 74
86 258 l0 152 149 0 c82 0 162 5 178 10 15 6 116 99 224 207 l197 195 98 -25
c154 -40 246 -51 424 -51 183 1 300 17 463 65 267 80 500 220 698 421 435 441
586 1074 397 1668 -234 734 -969 1210 -1742 1129z m359 -304 c817 -117 1339
-921 1110 -1710 -89 -304 -288 -575 -547 -746 -114 -75 -157 -97 -278 -142
-160 -60 -280 -80 -465 -81 -178 0 -277 15 -425 64 -115 39 -165 39 -216 1
-21 -16 -122 -113 -224 -215 l-185 -186 -198 0 c-221 0 -249 -6 -290 -64 -20
-28 -22 -44 -25 -190 l-3 -158 -37 6 c-20 3 -82 9 -137 12 -94 6 -102 5 -134
-17 -59 -41 -68 -67 -86 -264 -9 -99 -19 -183 -23 -186 -4 -4 -88 -14 -187
-23 -197 -19 -223 -27 -262 -86 -28 -40 -29 -69 -7 -258 l17 -143 -59 -60 -58
-59 -318 0 -318 0 0 318 0 317 931 930 c512 512 944 948 960 969 38 51 38 101
-1 216 -49 148 -64 247 -64 425 1 185 21 305 81 465 45 121 67 164 142 278
280 426 800 660 1306 587z"/>
<path d="M3744 4316 c-180 -66 -294 -231 -294 -420 0 -134 37 -223 130 -316
94 -94 181 -130 317 -130 248 0 443 195 443 445 0 192 -115 356 -297 422 -88
32 -212 31 -299 -1z m230 -295 c45 -30 66 -70 66 -126 0 -56 -21 -96 -66 -126
-19 -12 -47 -19 -79 -19 -32 0 -60 7 -79 19 -45 30 -66 70 -66 126 0 32 7 60
19 79 30 45 70 66 126 66 32 0 60 -7 79 -19z"/>
</g>
</svg>
